<svg xmlns="http://www.w3.org/2000/svg" viewBox="0 0 512 512" width="512" height="512">
  <defs>
    <radialGradient id="atmo" cx="0.5" cy="0.58" r="0.55">
      <stop offset="0" stop-color="#6D28D9" stop-opacity="0.45"/>
      <stop offset="1" stop-color="#6D28D9" stop-opacity="0"/>
    </radialGradient>
    <linearGradient id="g1" x1="0" y1="0" x2="1" y2="1">
      <stop offset="0" stop-color="#DDD6FE"/><stop offset="1" stop-color="#A78BFA"/>
    </linearGradient>
    <linearGradient id="g2" x1="0" y1="0" x2="1" y2="1">
      <stop offset="0" stop-color="#A78BFA"/><stop offset="1" stop-color="#818CF8"/>
    </linearGradient>
    <linearGradient id="g3" x1="0" y1="0" x2="1" y2="1">
      <stop offset="0" stop-color="#60A5FA"/><stop offset="1" stop-color="#38BDF8"/>
    </linearGradient>
    <linearGradient id="g4" x1="0" y1="0" x2="1" y2="1">
      <stop offset="0" stop-color="#2DD4BF"/><stop offset="1" stop-color="#22D3EE"/>
    </linearGradient>
    <filter id="neon" x="-40%" y="-40%" width="180%" height="180%">
      <feDropShadow dx="0" dy="6" stdDeviation="8" flood-color="#000000" flood-opacity="0.35"/>
      <feDropShadow dx="0" dy="0" stdDeviation="14" flood-color="#7C5CFF" flood-opacity="0.35"/>
    </filter>
    <filter id="spireGlow" x="-120%" y="-120%" width="340%" height="340%">
      <feGaussianBlur stdDeviation="7" result="blur"/>
      <feMerge><feMergeNode in="blur"/><feMergeNode in="SourceGraphic"/></feMerge>
    </filter>
  </defs>

  <rect x="24" y="24" width="464" height="464" rx="104" fill="#0C1124"/>
  <ellipse cx="256" cy="300" rx="250" ry="210" fill="url(#atmo)"/>

  <path d="M256 100 L256 162" stroke="url(#g1)" stroke-width="10" stroke-linecap="round"/>
  <circle cx="256" cy="88" r="11" fill="#DDD6FE" filter="url(#spireGlow)"/>

  <g filter="url(#neon)">
    <path d="M202 196 L256 168 L310 196 L296 212 L216 212 Z" fill="url(#g1)"/>
    <path d="M168 248 L256 220 L344 248 L330 264 L182 264 Z" fill="url(#g2)"/>
    <path d="M134 300 L256 272 L378 300 L364 316 L148 316 Z" fill="url(#g3)"/>
    <path d="M100 352 L256 324 L412 352 L398 368 L114 368 Z" fill="url(#g4)"/>
  </g>

  <rect x="196" y="384" width="120" height="12" rx="6" fill="url(#g4)"/>

  <path d="M160 112 L163 121 L172 124 L163 127 L160 136 L157 127 L148 124 L157 121 Z" fill="#E9D5FF" opacity="0.85"/>
  <path d="M368 104 L370 110 L376 112 L370 114 L368 120 L366 114 L360 112 L366 110 Z" fill="#BAE6FD" opacity="0.7"/>
</svg>
